<svg width="49" height="38" viewBox="0 0 49 38" fill="none" xmlns="http://www.w3.org/2000/svg">
<rect width="48" height="4.26316" rx="2.13158" fill="#738290"/>
<rect y="11.3684" width="48" height="4.26316" rx="2.13158" fill="#738290"/>
<path d="M14.3164 33H11.6602V26.3594C11.6602 26.1771 11.6243 26.0046 11.5527 25.8418C11.4876 25.679 11.3932 25.5358 11.2695 25.4121C11.1458 25.2884 11.0026 25.194 10.8398 25.1289C10.6771 25.0573 10.5046 25.0215 10.3223 25.0215C10.14 25.0215 9.96745 25.0573 9.80469 25.1289C9.64844 25.194 9.50846 25.2884 9.38477 25.4121C9.26758 25.5358 9.17318 25.679 9.10156 25.8418C9.03646 26.0046 9.00391 26.1771 9.00391 26.3594V33H6.33789V26.3594C6.33789 26.1771 6.30208 26.0046 6.23047 25.8418C6.16536 25.679 6.07096 25.5358 5.94727 25.4121C5.82357 25.2884 5.68034 25.194 5.51758 25.1289C5.35482 25.0573 5.18229 25.0215 5 25.0215C4.81771 25.0215 4.64518 25.0573 4.48242 25.1289C4.32617 25.194 4.1862 25.2884 4.0625 25.4121C3.94531 25.5358 3.85091 25.679 3.7793 25.8418C3.71419 26.0046 3.68164 26.1771 3.68164 26.3594V33H1.01562V22.541H1.66016L2.38281 23.3418C2.75391 23.0293 3.16081 22.7884 3.60352 22.6191C4.05273 22.4434 4.51823 22.3555 5 22.3555C5.48828 22.3555 5.96354 22.4466 6.42578 22.6289C6.89453 22.8112 7.30469 23.127 7.65625 23.5762C7.81901 23.3548 8.00456 23.166 8.21289 23.0098C8.42122 22.8535 8.63932 22.7266 8.86719 22.6289C9.10156 22.5312 9.34245 22.4629 9.58984 22.4238C9.83724 22.3783 10.0814 22.3555 10.3223 22.3555C10.8757 22.3555 11.3932 22.4596 11.875 22.668C12.3633 22.8763 12.7865 23.1628 13.1445 23.5273C13.5091 23.8854 13.7956 24.3086 14.0039 24.7969C14.2122 25.2852 14.3164 25.806 14.3164 26.3594V33ZM20.4297 30.4414C20.5339 30.474 20.638 30.4967 20.7422 30.5098C20.8464 30.5163 20.9505 30.5195 21.0547 30.5195C21.3151 30.5195 21.5658 30.4837 21.8066 30.4121C22.0475 30.3405 22.2721 30.2396 22.4805 30.1094C22.6953 29.9727 22.8841 29.8099 23.0469 29.6211C23.2161 29.4258 23.3529 29.2109 23.457 28.9766L25.4102 30.9395C25.1628 31.291 24.8763 31.6068 24.5508 31.8867C24.2318 32.1667 23.8835 32.4043 23.5059 32.5996C23.1348 32.7949 22.7409 32.9414 22.3242 33.0391C21.9141 33.1432 21.4909 33.1953 21.0547 33.1953C20.319 33.1953 19.6257 33.0586 18.9746 32.7852C18.3301 32.5117 17.7637 32.1309 17.2754 31.6426C16.7936 31.1543 16.4128 30.5749 16.1328 29.9043C15.8529 29.2272 15.7129 28.485 15.7129 27.6777C15.7129 26.8509 15.8529 26.0957 16.1328 25.4121C16.4128 24.7285 16.7936 24.1458 17.2754 23.6641C17.7637 23.1823 18.3301 22.8079 18.9746 22.541C19.6257 22.2741 20.319 22.1406 21.0547 22.1406C21.4909 22.1406 21.9173 22.1927 22.334 22.2969C22.7507 22.401 23.1445 22.5508 23.5156 22.7461C23.8932 22.9414 24.2448 23.1823 24.5703 23.4688C24.8958 23.7487 25.1823 24.0645 25.4297 24.416L20.4297 30.4414ZM21.7969 24.9434C21.6732 24.8978 21.5495 24.8685 21.4258 24.8555C21.3086 24.8424 21.1849 24.8359 21.0547 24.8359C20.6901 24.8359 20.3451 24.9043 20.0195 25.041C19.7005 25.1712 19.4206 25.36 19.1797 25.6074C18.9453 25.8548 18.7598 26.1543 18.623 26.5059C18.4863 26.8509 18.418 27.2415 18.418 27.6777C18.418 27.7754 18.4212 27.8861 18.4277 28.0098C18.4408 28.1335 18.457 28.2604 18.4766 28.3906C18.5026 28.5143 18.5319 28.6348 18.5645 28.752C18.597 28.8691 18.6393 28.9733 18.6914 29.0645L21.7969 24.9434ZM29.4434 33H26.7773V22.541H27.4219L28.3008 23.5566C28.7305 23.166 29.2155 22.8665 29.7559 22.6582C30.3027 22.4434 30.8724 22.3359 31.4648 22.3359C32.1029 22.3359 32.7051 22.4596 33.2715 22.707C33.8379 22.9479 34.3327 23.2832 34.7559 23.7129C35.179 24.1361 35.5111 24.6341 35.752 25.207C35.9993 25.7734 36.123 26.3789 36.123 27.0234V33H33.457V27.0234C33.457 26.75 33.4049 26.4928 33.3008 26.252C33.1966 26.0046 33.0534 25.7897 32.8711 25.6074C32.6888 25.4251 32.4772 25.2819 32.2363 25.1777C31.9954 25.0736 31.7383 25.0215 31.4648 25.0215C31.1849 25.0215 30.9212 25.0736 30.6738 25.1777C30.4264 25.2819 30.2116 25.4251 30.0293 25.6074C29.847 25.7897 29.7038 26.0046 29.5996 26.252C29.4954 26.4928 29.4434 26.75 29.4434 27.0234V33ZM45.6348 31.7793C45.4199 31.9746 45.1888 32.1602 44.9414 32.3359C44.7005 32.5052 44.4466 32.6549 44.1797 32.7852C43.9128 32.9089 43.6361 33.0065 43.3496 33.0781C43.0697 33.1562 42.7832 33.1953 42.4902 33.1953C41.8457 33.1953 41.2402 33.0814 40.6738 32.8535C40.1074 32.6257 39.6094 32.3034 39.1797 31.8867C38.7565 31.4635 38.4212 30.9525 38.1738 30.3535C37.9329 29.748 37.8125 29.071 37.8125 28.3223V22.541H40.4688V28.3223C40.4688 28.6738 40.5208 28.9896 40.625 29.2695C40.7357 29.543 40.8822 29.7741 41.0645 29.9629C41.2467 30.1517 41.4583 30.2949 41.6992 30.3926C41.9466 30.4902 42.2103 30.5391 42.4902 30.5391C42.7637 30.5391 43.0208 30.4772 43.2617 30.3535C43.5091 30.2233 43.724 30.054 43.9062 29.8457C44.0885 29.6374 44.2318 29.403 44.3359 29.1426C44.4401 28.8757 44.4922 28.6022 44.4922 28.3223V22.541H47.1582V33H46.5137L45.6348 31.7793Z" fill="#738290"/>
</svg>
